<?xml version="1.0" encoding="utf-8"?>
<!-- Generator: Adobe Illustrator 23.0.0, SVG Export Plug-In . SVG Version: 6.00 Build 0)  -->
<svg version="1.1" id="Capa_1" xmlns="http://www.w3.org/2000/svg" xmlns:xlink="http://www.w3.org/1999/xlink" x="0px" y="0px"
	 viewBox="0 0 612 792" style="enable-background:new 0 0 612 792;" xml:space="preserve">
<style type="text/css">
	.st0{fill:#F3B2DB;stroke:#231F20;stroke-miterlimit:10;}
	.st1{fill:#762F5C;stroke:#010101;stroke-miterlimit:10;}
	.st2{fill:none;stroke:#010101;stroke-width:0.25;stroke-miterlimit:10;}
	.st3{fill:none;stroke:#010101;stroke-miterlimit:10;}
	.st4{fill:#FED7B7;stroke:#010101;stroke-miterlimit:10;}
	.st5{fill:#762F5C;stroke:#231F20;stroke-miterlimit:10;}
	.st6{fill:#762F5C;}
</style>
<g>
	<g>
		<circle class="st0" cx="306" cy="392.53" r="293.13"/>
		<g>
			<polygon class="st1" points="498.49,500.1 500.64,503.58 502.79,501.18 			"/>
			<path class="st2" d="M506.42,506.85c0,0,8.2-5.68,10.35-11.05"/>
			<path class="st2" d="M522.69,493.11c0,0,2.15-8.6,4.3-10.75"/>
			<path class="st3" d="M149,470.66"/>
			<path class="st3" d="M111.91,307.86c24.1-22.66,25.11-24.15,32.3-27.96"/>
			<path class="st4" d="M156.11,460.06c13.28-7.28,43.26-29.17,44.25-30.25c3.38-3.67,22.03-19.6,29.16-24.1
				c3.29-2.07,47.52-34.66,50.61-36.01c8.68-3.78,40.49-38.45,40.49-38.45l8.68-31.11c-0.8-2.29,2.89-26.03,2.89-26.03
				c-7.87-9.71-12.95-2.43-16.65,4.08c-1.28,2.26-11.31,32.55-11.31,32.55c-3.35,5.44-23.96,29.35-28.92,29.43l-28.44,4.79
				c0.96-7.23,5.3-19.28,5.78-38.56s-13.5-18.32-13.5-18.32c0.38-1.87,1.01-7.43,3.28-22.54c2.18-14.5-19.32-11.33-17.89-9.88
				c1.44,1.46,8.51-14.24,8.52-14.25c-1.27-27.91-24.76-16-24.76-16c-4.34,2.89-30.37,34.23-30.37,34.23
				c0.48,2.41-33.74,20.25-33.74,20.25c-3.37,0,13.5-30.85,13.5-40s-5.3-22.18-5.3-22.18s-7.23-11.09-13.02-2.41
				c-5.78,8.68-8.19,18.8-9.64,21.21c-1.45,2.41-14.82,24.85-18.32,29.89c-2.51,3.61-5.03,10.82-5.03,10.82s-2.43,16.75-12.32,37.39
				c-9.54,19.91-15.2,54.85-13.5,68.93c2.78,23-35.93,52.04-35.93,52.04s-20.38,13.46-25.58,16.93c0,0,1.7,28,30.55,82.31
				L156.11,460.06z"/>
			<path class="st3" d="M210.89,297.26c0,0,5.3-33.26,13.98-41.46"/>
			<path class="st3" d="M239.17,288.09c0,0-7.71,32.78-5.78,32.78"/>
			<line class="st3" x1="243.99" y1="355.58" x2="246.89" y2="344.97"/>
			<path class="st5" d="M129.75,236.61h16.87c0,0,7.95-16.17,5.78-18.8c0,0-2.62-16.67-8.19-8.36
				C142.93,211.36,134.09,218.78,129.75,236.61z"/>
			<path class="st5" d="M320.64,288.09c0,0,1.72,6.75,8.09,5.78l5.41-23.87c0,0-1.93-3.14-6.75,0
				C322.57,273.15,320.64,288.09,320.64,288.09z"/>
			<path class="st3" d="M480,471.01"/>
			<path class="st4" d="M320.64,331.53c-5.45,5.84-15.42,16.21-15.42,16.21s28.91,25.15,39.31,35.97c0,0,24.08,26.36,31.19,42.24
				c7.1,15.88,56.82,45.07,56.82,45.07s118.44,49.29,132.16,58.72c0.99,0.68-0.64,0.61,0.08-0.36c3.49-4.78,14.35-20.85,27.93-75.16
				c-2.55,0-9.51-2.59-17.86-5.72c8.63,3.62-40.22-15.41-44.97-40.92c-4.09-21.96-7.73-42.97-10.86-51.71
				c-1.23-3.44-16.71-38.18-17.13-51.1c-0.42-12.92-6.27-25.03-10.03-31.3c-3.76-6.27-8.77-38.02-7.94-41.36s-5.85-11.7-14.2-4.6
				c-8.36,7.1-8.77,28.58-8.77,28.58l3.34,32.28c0,0,2.92,26.99-0.42,32.78c-3.34,5.78-10.44,3.7-10.44,3.7s3.76-5.43,2.51-8.77
				c-1.25-3.34-9.19-17.96-10.44-24.23c0,0-7.94-24.65-11.7-28.41s-28.83-18.38-32.17-18.8c-3.34-0.42-17.96,14.2-19.64,17.13
				s0,11.7,0,11.7s-10.44-0.07-13.79,8.11c-3.34,8.18-7.1,18.21-4.6,18.63c2.51,0.42-15.88,1.67-16.71,11.28s7.94,36.3,7.94,36.3
				l-32.17-23.5"/>
			<path class="st3" d="M363.6,299.92c0,0,34.68,4.18,34.68,7.94c0,0,5.85,3.34,33,54.73c0,0,1.67,10.86-10.44,9.19
				c-12.12-1.67-36.76-38.44-36.76-38.44s-15.04-0.84-20.47-1.25"/>
			<path class="st3" d="M381.99,273.18c0,0,26.32,1.67,33,12.12s21.92,46.89,25.07,56.06c0.8,2.33,2.99,18.07-12.5,14.22"/>
			<path class="st3" d="M453.43,324.57"/>
			<path class="st3" d="M453.43,324.57c0,0-10.49,9.54-29.9-22.8"/>
			<line class="st3" x1="408.75" y1="279.9" x2="399.95" y2="273.18"/>
			<path class="st5" d="M416.24,360.91c2.33,6.59,14.92,13.45,14.92,13.45s9.01,1.98,4.47-5.14c0,0-9.55-15.82-12.21-15.82
				S414.95,357.26,416.24,360.91z"/>
			<path class="st5" d="M438.21,334.61c0,0-8.29,1.2-11.32,4.93c-3.03,3.73,11.39,18.76,11.39,18.76s10.78,5.53,9.02-1.97
				C445.89,350.28,438.21,334.61,438.21,334.61z"/>
			<path class="st3" d="M450.57,304.48"/>
			<path class="st5" d="M450.57,304.48c0,0-8.63,3.37-7.59,9.34c0,0,13.07,18.52,15.88,14.92
				C461.67,325.14,453.64,311.37,450.57,304.48z"/>
			<path class="st3" d="M479.95,225.43"/>
			<path class="st5" d="M474.31,224.23c0,0,2.51-6.35,5.64-4.94c0,0,2.17-1.21,3.28,9.41C483.23,228.7,476.67,222.79,474.31,224.23z
				"/>
			<path class="st4" d="M208.32,225.43c0,0-46.48,29.71-48.2,45.89l16.47-10.06L208.32,225.43z"/>
			<path class="st3" d="M399.95,354.38c0,0-6.33,23.7-17.96,26.72"/>
			<path class="st3" d="M479.95,435.54c0,0,3.92-25.17-58.75-58.41"/>
			<path class="st3" d="M465.09,315.46c0,0-0.43,17.83,5.45,27.5"/>
			<path class="st3" d="M384.08,333.34c0,0-4.39,10.37-15.74,11.63"/>
			<path class="st1" d="M501.72,503.33c0,0,9.93-8.91,14.29-22.34c4.36-13.44,19.01-29.84,19.01-29.84s15.53-21.11,9.07-22.68
				c0,0,14.66,3.84,15.01,8.02c0.35,4.19-8.56,19.76-8.98,20.6c-1.08,2.15-12.23,20.09-12.82,21.28c-2.24,4.53-6.54,8.83-9.94,17.28
				c-0.5,1.23-5.2,9.84-8.42,11.99C513.48,511.26,496.66,503.33,501.72,503.33z"/>
			<path class="st2" d="M551.52,430.93c0,0-3.56,20.78-7.86,26.16c-4.3,5.38-16.13,16.13-16.13,19.36"/>
			<path class="st2" d="M554.26,432.14c0,0-1.46,11.5-2.53,12.58"/>
			<path class="st2" d="M544.73,446.33c0,0-2.15,8.6-5.38,10.75"/>
			<path class="st1" d="M502.79,505.29c0,0-3.23,3.42,2.15,7.72c5.38,4.3,9.68-1.08,8.6-2.15v1.08c0,0,6.45-3.48,3.23-3.35
				S503.87,507.24,502.79,505.29z"/>
			<path class="st1" d="M502.79,505.48c0,0-10.75,17.21-6.45,24.74l9.68-16.13C506.02,514.08,498.32,509.9,502.79,505.48z"/>
			<path class="st4" d="M285.47,333.08c0,0-5.93-5.4-4.87-14.83c1.06-9.43,2.31-29.33,2.33-36.3c0.02-6.97,7.19-6.06,7.19-6.06
				s11.67,1.66,11.98,10.73s2.17,23.04,2.25,23.41C304.82,312.38,285.47,333.08,285.47,333.08z"/>
			<path class="st5" d="M285.21,276.54c0,0-1.4-10.53-3.49-6.53s-1.33,26.69,1.64,27.25C286.32,297.83,281.6,274.46,285.21,276.54z"
				/>
		</g>
	</g>
	<g>
		<g>
			<path class="st6" d="M193.13,538.54c-2.79,6.25-5.31,12.29-7.57,18.1c-2.26,5.82-4.4,11.54-6.42,17.17s-4.01,11.25-5.99,16.88
				c-1.97,5.63-4.11,11.42-6.42,17.38c-0.09,0.29-0.22,0.67-0.36,1.15c-0.14,0.48-0.41,0.96-0.79,1.44
				c-0.58,0.77-1.03,1.15-1.37,1.15c-0.34,0-0.6-0.14-0.79-0.43c-1.15-1.54-1.9-3.61-2.24-6.2c-0.34-2.6-0.26-5.15,0.22-7.65
				c0.87-4.62,2.04-9.47,3.53-14.57c1.49-5.1,3.13-10.27,4.9-15.51c1.78-5.24,3.68-10.53,5.7-15.87s4.04-10.55,6.06-15.65
				c2.4-5.77,4.66-11.11,6.78-16.01c2.11-4.9,4.23-9.71,6.35-14.43c0.77-1.15,1.78-1.61,3.03-1.37c1.25,0.24,2.4,0.89,3.46,1.95
				c1.06,1.06,1.88,2.36,2.45,3.89c0.58,1.54,0.67,2.98,0.29,4.33c-1.15,3.08-2.43,5.92-3.82,8.51c-1.4,2.6-2.62,5.29-3.68,8.08
				c3.37-3.27,6.73-6.39,10.1-9.38c3.37-2.98,7.21-5,11.54-6.06c1.92-0.29,3.48-0.19,4.69,0.29c1.2,0.48,2.16,1.2,2.89,2.16
				c0.72,0.96,1.25,2.12,1.59,3.46c0.34,1.35,0.6,2.69,0.79,4.04c0.09-0.19,0.26-0.26,0.5-0.22c0.24,0.05,0.46-0.02,0.65-0.22
				c3.08-0.87,6.2-1.49,9.38-1.88c3.17-0.38,6.3-0.58,9.38-0.58c1.54-0.19,2.64,0.05,3.32,0.72c0.67,0.67,0.24,1.25-1.3,1.73
				c-1.73,0.48-3.56,0.94-5.48,1.37c-1.92,0.43-3.85,0.92-5.77,1.44c-1.92,0.53-3.78,1.08-5.55,1.66c-1.78,0.58-3.34,1.3-4.69,2.16
				c-1.25,0.77-2.36,2.21-3.32,4.33c-1.15,2.79-2.84,5.51-5.05,8.15c-2.21,2.65-4.69,4.98-7.43,7c-2.74,2.02-5.63,3.56-8.66,4.62
				c-3.03,1.06-5.99,1.35-8.87,0.87c-1.73-0.48-2.88-1.52-3.46-3.1c-0.58-1.59-0.96-3.2-1.15-4.83c0-1.73,0.72-2.6,2.16-2.6
				c0.48-0.29,0.87-0.5,1.15-0.65c0.29-0.14,0.58-0.46,0.87-0.94c0.96-1.73,2.21-3.32,3.75-4.76c3.08-2.6,6.32-4.81,9.74-6.64
				c3.41-1.83,6.8-3.37,10.17-4.62c1.35-0.38,2.11-0.72,2.31-1.01c0.19-0.29,0.38-1.1,0.58-2.45c-0.19-1.92-1.03-3.22-2.52-3.89
				c-1.49-0.67-3.78-0.19-6.85,1.44c-1.44,0.87-3.01,1.97-4.69,3.32c-1.68,1.35-3.37,2.77-5.05,4.26c-1.68,1.49-3.3,2.98-4.83,4.47
				C195.77,536.07,194.38,537.39,193.13,538.54z M197.46,545.61c0.96,0.48,2.36,0.48,4.18,0c1.83-0.48,3.7-1.25,5.63-2.31
				c1.92-1.06,3.73-2.31,5.41-3.75c1.68-1.44,2.96-2.88,3.82-4.33c-3.37,1.35-6.61,2.86-9.74,4.54
				C203.64,541.45,200.54,543.4,197.46,545.61z"/>
			<path class="st6" d="M276.37,527.43l1.73-1.73h0.14v0.29c0.19,2.21,0,3.87-0.58,4.98c-0.58,1.11-0.87,1.71-0.87,1.8
				c-0.96,1.44-2.26,3.3-3.9,5.55c-1.64,2.26-3.34,4.57-5.12,6.92c-1.78,2.36-3.49,4.52-5.12,6.49c-1.64,1.97-2.93,3.39-3.9,4.26
				c-1.15,1.35-2.4,2.6-3.75,3.75c-0.48,0.38-1.13,0.72-1.95,1.01c-0.82,0.29-1.66,0.5-2.52,0.65s-1.71,0.17-2.52,0.07
				c-0.82-0.1-1.47-0.34-1.95-0.72c-1.64-1.06-2.91-2.33-3.82-3.82c-0.91-1.49-1.37-3.1-1.37-4.83c-0.29-5.29,0.17-10.7,1.37-16.23
				c1.2-5.53,2.62-10.55,4.26-15.07c0.48-1.35,1.15-2.74,2.02-4.18c0.87-0.87,1.88-1.1,3.03-0.72c1.15,0.39,2.19,1.18,3.1,2.38
				c0.91,1.2,1.59,2.67,2.02,4.4c0.43,1.73,0.36,3.46-0.22,5.19c-0.48,1.64-0.92,3.2-1.3,4.69c-0.39,1.49-0.82,3.05-1.3,4.69
				c-0.19,0.77-0.5,1.88-0.94,3.32c-0.43,1.44-0.89,2.96-1.37,4.54c-0.48,1.59-0.92,3.1-1.3,4.54c-0.39,1.44-0.63,2.55-0.72,3.32
				c-0.19,1.44,0.19,1.83,1.15,1.15c0.96-0.67,2.26-1.83,3.9-3.46c3.94-4.04,7.69-7.96,11.25-11.76
				C269.39,535.1,272.91,531.28,276.37,527.43z M256.17,510.12c-0.67,0.67-1.15,0.67-1.44,0c-1.25-1.92-2.07-3.94-2.45-6.06
				c-0.39-2.11-0.19-4.23,0.58-6.35c0.38-1.25,1.23-2.28,2.52-3.1c1.3-0.82,2.48-1.08,3.53-0.79c0.58,0.19,1.2,0.5,1.88,0.94
				c0.67,0.43,1.1,0.94,1.3,1.51c0.67,2.6,0.31,5.1-1.08,7.5C259.61,506.18,258,508.3,256.17,510.12z"/>
			<path class="st6" d="M275.79,553.26c-0.39,0.77-0.67,1.25-0.87,1.44c-1.54,1.06-2.6,0.77-3.17-0.87
				c-0.19-0.77-0.34-1.49-0.43-2.16c-0.09-0.67-0.14-1.39-0.14-2.16c-0.09-2.11-0.09-4.23,0-6.35c0.29-2.4,0.87-5.02,1.73-7.86
				c0.87-2.84,1.9-5.65,3.1-8.44c1.2-2.79,2.45-5.41,3.75-7.86s2.52-4.45,3.68-5.99c0.58-0.87,1.37-1.35,2.38-1.44
				c1.01-0.09,2,0.14,2.96,0.72c0.96,0.58,1.73,1.4,2.31,2.45c0.58,1.06,0.72,2.26,0.43,3.61c-0.1,0.1-0.29,0.39-0.58,0.87
				c-0.29,0.48-0.58,1.01-0.87,1.59c-0.29,0.58-0.58,1.13-0.87,1.66c-0.29,0.53-0.48,0.84-0.58,0.94c1.06-0.77,2.11-1.63,3.17-2.6
				c1.06-0.96,2.14-1.88,3.25-2.74c1.1-0.87,2.24-1.61,3.39-2.24c1.15-0.62,2.4-0.94,3.75-0.94c1.63,0,3.08,0.46,4.33,1.37
				c1.25,0.92,2.28,2.02,3.1,3.32c0.82,1.3,1.32,2.69,1.51,4.18c0.19,1.49,0.09,2.91-0.29,4.26c-0.87,2.6-2.07,5.12-3.61,7.57
				c-1.54,2.45-3.1,4.88-4.69,7.29c-1.59,2.41-3.05,4.83-4.4,7.29c-1.35,2.45-2.31,4.98-2.89,7.57c-0.58,2.02-0.6,3.27-0.07,3.75
				c0.53,0.48,1.23,0.58,2.09,0.29c0.87-0.29,1.75-0.77,2.67-1.44c0.91-0.67,1.56-1.15,1.95-1.44c3.94-3.08,7.65-6.47,11.11-10.17
				c3.46-3.7,6.87-7.24,10.24-10.6c2.88-2.88,4.69-4.45,5.41-4.69c0.72-0.24,0.82,0.24,0.29,1.44c-0.53,1.2-1.4,2.81-2.6,4.83
				c-1.2,2.02-2.29,3.8-3.25,5.34c-1.15,1.92-2.74,4.26-4.76,7c-2.02,2.74-4.26,5.39-6.71,7.93s-4.98,4.71-7.57,6.49
				c-2.6,1.78-5,2.67-7.21,2.67c-1.64,0-3.08-0.36-4.33-1.08c-1.25-0.72-2.31-1.61-3.17-2.67c-0.87-1.06-1.51-2.26-1.95-3.61
				c-0.43-1.35-0.65-2.69-0.65-4.04c0-4.81,0.98-9.52,2.96-14.14c1.97-4.62,4.06-8.85,6.28-12.7c1.06-2.02,1.35-3.41,0.87-4.18
				c-0.48-0.77-1.88-0.62-4.18,0.43c-1.92,0.87-3.7,2.43-5.34,4.69c-1.64,2.26-3.15,4.71-4.54,7.36c-1.4,2.65-2.67,5.27-3.82,7.86
				C277.81,549.65,276.75,551.72,275.79,553.26z"/>
			<path class="st6" d="M335.08,531.62c0.48-0.77,1.37-1.92,2.67-3.46c1.3-1.54,2.86-3.22,4.69-5.05c1.83-1.83,3.8-3.68,5.91-5.55
				c2.12-1.88,4.18-3.56,6.2-5.05c2.02-1.49,3.89-2.72,5.63-3.68c1.73-0.96,3.13-1.39,4.18-1.3c0.87,0,1.61,0.22,2.24,0.65
				c0.63,0.43,1.11,0.92,1.44,1.44c0.34,0.53,0.46,1.01,0.36,1.44c-0.1,0.43-0.48,0.7-1.15,0.79c-1.06,0.19-2.65,1.06-4.76,2.6
				c-2.12,1.54-4.28,3.32-6.49,5.34c-2.21,2.02-4.23,3.99-6.06,5.92c-1.83,1.92-2.93,3.27-3.32,4.04c1.54,0.67,2.62,2.09,3.25,4.26
				c0.62,2.16,1.01,4.71,1.15,7.65c0.14,2.94,0.14,5.99,0,9.16c-0.14,3.17-0.17,6.11-0.07,8.8c0.09,2.69,0.41,4.9,0.94,6.64
				c0.53,1.73,1.46,2.55,2.81,2.45c0.58,0,1.47-0.6,2.67-1.8c1.2-1.2,2.55-2.74,4.04-4.62c1.49-1.88,3.05-3.97,4.69-6.28
				c1.63-2.31,3.2-4.59,4.69-6.85c1.49-2.26,2.81-4.35,3.97-6.28c1.15-1.92,2.07-3.46,2.74-4.62c0.67-1.25,1.25-1.78,1.73-1.59
				c0.48,0.19,0.63,0.72,0.43,1.59c-0.39,1.83-0.92,3.56-1.59,5.19c-0.67,1.64-1.44,3.17-2.31,4.62c-0.67,1.25-1.61,2.91-2.81,4.98
				c-1.2,2.07-2.6,4.23-4.18,6.49c-1.59,2.26-3.27,4.49-5.05,6.71c-1.78,2.21-3.66,4.09-5.63,5.63c-1.97,1.54-3.95,2.6-5.92,3.17
				c-1.97,0.58-3.87,0.34-5.7-0.72c-1.83-0.48-3.2-1.61-4.11-3.39c-0.92-1.78-1.54-3.9-1.88-6.35c-0.34-2.45-0.48-5.07-0.43-7.86
				c0.05-2.79,0.17-5.53,0.36-8.22c0.19-2.69,0.36-5.19,0.5-7.5c0.14-2.31,0.12-4.09-0.07-5.34c-1.83,0.96-3.53,2.79-5.12,5.48
				c-1.59,2.69-2.98,5.6-4.18,8.73c-1.2,3.13-2.19,6.11-2.96,8.94c-0.77,2.84-1.25,4.83-1.44,5.99c-0.1,0.48-0.14,0.91-0.14,1.3
				c0,0.38-0.1,0.82-0.29,1.3c-0.29,1.06-0.67,1.71-1.15,1.95c-0.48,0.24-0.96,0.24-1.44,0c-0.48-0.24-0.91-0.67-1.3-1.3
				c-0.38-0.63-0.72-1.23-1.01-1.8c-0.58-1.54-0.99-3.39-1.23-5.55c-0.24-2.16-0.36-4.35-0.36-6.56c0-2.21,0.05-4.3,0.14-6.28
				c0.1-1.97,0.24-3.48,0.43-4.54c0.48-3.65,1.3-8.08,2.45-13.27s2.62-10.72,4.4-16.59c1.78-5.87,3.77-11.88,5.99-18.03
				c2.21-6.15,4.64-12.09,7.29-17.82c2.64-5.72,5.41-11.04,8.29-15.94c2.88-4.91,5.87-8.99,8.94-12.26
				c0.96-0.96,2.09-1.32,3.39-1.08c1.3,0.24,2.47,0.82,3.54,1.73c1.06,0.92,1.85,2.04,2.38,3.39c0.53,1.35,0.51,2.6-0.07,3.75
				c-0.96,2.02-2.04,4.98-3.25,8.87c-1.21,3.9-2.86,8.58-4.98,14.07c-2.12,5.48-4.83,11.66-8.15,18.54
				c-3.32,6.88-7.53,14.21-12.62,22c-0.96,1.92-1.68,3.73-2.16,5.41C335.75,527.75,335.37,529.6,335.08,531.62z M339.55,515.32
				c1.44-2.21,2.98-4.95,4.62-8.22c1.63-3.27,3.32-6.76,5.05-10.46c1.73-3.7,3.41-7.45,5.05-11.25c1.63-3.8,3.12-7.4,4.47-10.82
				c1.35-3.41,2.48-6.47,3.39-9.16c0.91-2.69,1.56-4.76,1.95-6.2c-1.93,3.46-3.95,7.33-6.06,11.61c-2.12,4.28-4.26,8.8-6.42,13.56
				s-4.28,9.76-6.35,15C343.18,504.62,341.28,509.93,339.55,515.32z"/>
			<path class="st6" d="M385.43,553.98c-2.5,0.48-4.83,0.1-7-1.15c-2.16-1.25-3.48-3.12-3.97-5.63c-0.38-2.11-0.58-4.52-0.58-7.21
				c0-2.69,0.14-5.41,0.43-8.15c0.29-2.74,0.7-5.41,1.23-8.01s1.08-4.91,1.66-6.92c0.48-0.87,1.23-1.3,2.24-1.3s2.07,0.22,3.17,0.65
				c1.1,0.43,2.07,0.99,2.89,1.66c0.82,0.67,1.32,1.35,1.51,2.02c0.29,1.25,0.02,3.25-0.79,5.99c-0.82,2.74-1.71,5.6-2.67,8.58
				c-0.96,2.98-1.73,5.75-2.31,8.29c-0.58,2.55-0.48,4.16,0.29,4.83c0.67,0.67,1.56,0.5,2.67-0.5c1.1-1.01,2.28-2.5,3.53-4.47
				c1.25-1.97,2.55-4.28,3.9-6.92c1.35-2.64,2.67-5.27,3.97-7.86c1.3-2.6,2.48-5,3.53-7.21c1.06-2.21,1.92-3.9,2.6-5.05
				c0.19-0.38,0.65-0.55,1.37-0.5c0.72,0.05,1.46,0.27,2.24,0.65c0.77,0.39,1.49,0.89,2.16,1.51c0.67,0.63,1.1,1.32,1.3,2.09
				c0.87,3.37,1.15,7,0.87,10.89c-0.29,3.9-0.82,7.57-1.59,11.04c3.56-2.79,7.04-5.29,10.46-7.5c3.41-2.21,7.09-4.18,11.04-5.91
				c0.38-0.29,1.13-0.5,2.24-0.65c1.1-0.14,2.04-0.17,2.81-0.07c0.77,0.1,1.18,0.41,1.23,0.94c0.05,0.53-0.84,1.37-2.67,2.53
				c-4.42,2.79-8.9,5.96-13.42,9.52c-4.52,3.56-8.75,6.92-12.7,10.1c-0.67,0.48-1.11,1.25-1.3,2.31
				c-0.77,5.38-2.12,11.35-4.04,17.89c-1.92,6.54-4.25,13.13-7,19.76c-2.74,6.64-5.82,12.96-9.23,18.97
				c-3.42,6.01-7,11.18-10.75,15.51c-2.4,2.79-4.95,4.74-7.65,5.84c-2.69,1.1-5.17,1.37-7.43,0.79c-2.26-0.58-4.13-2-5.63-4.25
				c-1.49-2.26-2.28-5.36-2.38-9.3c1.25-5.96,3.27-11.76,6.06-17.38c2.79-5.63,6.13-11.16,10.03-16.59
				c3.89-5.43,8.2-10.87,12.91-16.3c4.71-5.43,9.67-10.94,14.86-16.52c0.67-0.48,1.3-1.61,1.88-3.39c0.58-1.78,1.06-3.68,1.44-5.7
				c0.38-2.02,0.65-3.92,0.79-5.7c0.14-1.78,0.12-2.86-0.07-3.25c-0.96,1.73-2.02,3.78-3.17,6.13c-1.15,2.36-2.36,4.62-3.61,6.78
				c-1.25,2.16-2.5,4.04-3.75,5.63C387.78,553.04,386.58,553.88,385.43,553.98z M358.45,623.66c1.06,0.38,2.6-0.65,4.62-3.1
				s4.28-5.72,6.78-9.81c2.5-4.09,5.05-8.66,7.65-13.71c2.6-5.05,4.98-9.95,7.14-14.71c2.16-4.76,3.97-9.07,5.41-12.91
				c1.44-3.85,2.21-6.59,2.31-8.22c-2.5,2.69-5.24,5.94-8.22,9.74c-2.98,3.8-5.91,7.79-8.8,11.97c-2.88,4.18-5.6,8.44-8.15,12.77
				c-2.55,4.33-4.66,8.37-6.35,12.12c-1.68,3.75-2.79,7.04-3.32,9.88C356.98,620.5,357.29,622.5,358.45,623.66z"/>
		</g>
	</g>
</g>
</svg>
